<svg width="160" height="27" viewBox="0 0 160 27" fill="none" xmlns="http://www.w3.org/2000/svg">
<path d="M24.444 9.31016L17.7493 8.33721L14.7567 2.27013C14.6749 2.10401 14.5404 1.96954 14.3743 1.8878C13.9577 1.68214 13.4515 1.85353 13.2432 2.27013L10.2505 8.33721L3.55588 9.31016C3.37131 9.33653 3.20256 9.42354 3.07336 9.55538C2.91716 9.71592 2.83109 9.9319 2.83406 10.1559C2.83703 10.3798 2.92879 10.5935 3.08918 10.7498L7.93283 15.4722L6.78849 22.1404C6.76166 22.2955 6.77882 22.4551 6.83804 22.6009C6.89726 22.7468 6.99617 22.8731 7.12354 22.9657C7.25091 23.0582 7.40165 23.1131 7.55868 23.1243C7.7157 23.1355 7.87272 23.1025 8.01193 23.029L13.9999 19.8808L19.9879 23.029C20.1514 23.116 20.3412 23.145 20.5232 23.1134C20.982 23.0343 21.2904 22.5992 21.2113 22.1404L20.067 15.4722L24.9107 10.7498C25.0425 10.6206 25.1295 10.4519 25.1559 10.2673C25.2271 9.80587 24.9054 9.37872 24.444 9.31016Z" fill="#0083FF"/>
<path d="M24.444 9.31016L17.7493 8.33721L14.7567 2.27013C14.6749 2.10401 14.5404 1.96954 14.3743 1.8878C13.9577 1.68214 13.4515 1.85353 13.2432 2.27013L10.2505 8.33721L3.55588 9.31016C3.37131 9.33653 3.20256 9.42354 3.07336 9.55538C2.91716 9.71592 2.83109 9.9319 2.83406 10.1559C2.83703 10.3798 2.92879 10.5935 3.08918 10.7498L7.93283 15.4722L6.78849 22.1404C6.76166 22.2955 6.77882 22.4551 6.83804 22.6009C6.89726 22.7468 6.99617 22.8731 7.12354 22.9657C7.25091 23.0582 7.40165 23.1131 7.55868 23.1243C7.7157 23.1355 7.87272 23.1025 8.01193 23.029L13.9999 19.8808L19.9879 23.029C20.1514 23.116 20.3412 23.145 20.5232 23.1134C20.982 23.0343 21.2904 22.5992 21.2113 22.1404L20.067 15.4722L24.9107 10.7498C25.0425 10.6206 25.1295 10.4519 25.1559 10.2673C25.2271 9.80587 24.9054 9.37872 24.444 9.31016Z" fill="url(#paint0_linear_1040_93610)"/>
<path d="M57.4459 9.31016L50.7513 8.33721L47.7586 2.27013C47.6769 2.10401 47.5424 1.96954 47.3763 1.8878C46.9597 1.68214 46.4534 1.85353 46.2451 2.27013L43.2525 8.33721L36.5578 9.31016C36.3733 9.33653 36.2045 9.42354 36.0753 9.55538C35.9191 9.71592 35.833 9.9319 35.836 10.1559C35.839 10.3798 35.9307 10.5935 36.0911 10.7498L40.9348 15.4722L39.7904 22.1404C39.7636 22.2955 39.7808 22.4551 39.84 22.6009C39.8992 22.7468 39.9981 22.8731 40.1255 22.9657C40.2529 23.0582 40.4036 23.1131 40.5606 23.1243C40.7177 23.1355 40.8747 23.1025 41.0139 23.029L47.0019 19.8808L52.9899 23.029C53.1533 23.116 53.3432 23.145 53.5251 23.1134C53.9839 23.0343 54.2924 22.5992 54.2133 22.1404L53.069 15.4722L57.9126 10.7498C58.0444 10.6206 58.1315 10.4519 58.1578 10.2673C58.229 9.80587 57.9073 9.37872 57.4459 9.31016Z" fill="#0083FF"/>
<path d="M57.4459 9.31016L50.7513 8.33721L47.7586 2.27013C47.6769 2.10401 47.5424 1.96954 47.3763 1.8878C46.9597 1.68214 46.4534 1.85353 46.2451 2.27013L43.2525 8.33721L36.5578 9.31016C36.3733 9.33653 36.2045 9.42354 36.0753 9.55538C35.9191 9.71592 35.833 9.9319 35.836 10.1559C35.839 10.3798 35.9307 10.5935 36.0911 10.7498L40.9348 15.4722L39.7904 22.1404C39.7636 22.2955 39.7808 22.4551 39.84 22.6009C39.8992 22.7468 39.9981 22.8731 40.1255 22.9657C40.2529 23.0582 40.4036 23.1131 40.5606 23.1243C40.7177 23.1355 40.8747 23.1025 41.0139 23.029L47.0019 19.8808L52.9899 23.029C53.1533 23.116 53.3432 23.145 53.5251 23.1134C53.9839 23.0343 54.2924 22.5992 54.2133 22.1404L53.069 15.4722L57.9126 10.7498C58.0444 10.6206 58.1315 10.4519 58.1578 10.2673C58.229 9.80587 57.9073 9.37872 57.4459 9.31016Z" fill="url(#paint1_linear_1040_93610)"/>
<path d="M90.444 9.31016L83.7493 8.33721L80.7567 2.27013C80.6749 2.10401 80.5404 1.96954 80.3743 1.8878C79.9577 1.68214 79.4515 1.85353 79.2432 2.27013L76.2505 8.33721L69.5559 9.31016C69.3713 9.33653 69.2026 9.42354 69.0734 9.55538C68.9172 9.71592 68.8311 9.9319 68.8341 10.1559C68.837 10.3798 68.9288 10.5935 69.0892 10.7498L73.9328 15.4722L72.7885 22.1404C72.7617 22.2955 72.7788 22.4551 72.838 22.6009C72.8973 22.7468 72.9962 22.8731 73.1235 22.9657C73.2509 23.0582 73.4017 23.1131 73.5587 23.1243C73.7157 23.1355 73.8727 23.1025 74.0119 23.029L79.9999 19.8808L85.9879 23.029C86.1514 23.116 86.3412 23.145 86.5232 23.1134C86.982 23.0343 87.2904 22.5992 87.2113 22.1404L86.067 15.4722L90.9107 10.7498C91.0425 10.6206 91.1295 10.4519 91.1559 10.2673C91.2271 9.80587 90.9054 9.37872 90.444 9.31016Z" fill="#0083FF"/>
<path d="M90.444 9.31016L83.7493 8.33721L80.7567 2.27013C80.6749 2.10401 80.5404 1.96954 80.3743 1.8878C79.9577 1.68214 79.4515 1.85353 79.2432 2.27013L76.2505 8.33721L69.5559 9.31016C69.3713 9.33653 69.2026 9.42354 69.0734 9.55538C68.9172 9.71592 68.8311 9.9319 68.8341 10.1559C68.837 10.3798 68.9288 10.5935 69.0892 10.7498L73.9328 15.4722L72.7885 22.1404C72.7617 22.2955 72.7788 22.4551 72.838 22.6009C72.8973 22.7468 72.9962 22.8731 73.1235 22.9657C73.2509 23.0582 73.4017 23.1131 73.5587 23.1243C73.7157 23.1355 73.8727 23.1025 74.0119 23.029L79.9999 19.8808L85.9879 23.029C86.1514 23.116 86.3412 23.145 86.5232 23.1134C86.982 23.0343 87.2904 22.5992 87.2113 22.1404L86.067 15.4722L90.9107 10.7498C91.0425 10.6206 91.1295 10.4519 91.1559 10.2673C91.2271 9.80587 90.9054 9.37872 90.444 9.31016Z" fill="url(#paint2_linear_1040_93610)"/>
<path d="M123.446 9.31016L116.751 8.33721L113.759 2.27013C113.677 2.10401 113.542 1.96954 113.376 1.8878C112.96 1.68214 112.453 1.85353 112.245 2.27013L109.252 8.33721L102.558 9.31016C102.373 9.33653 102.205 9.42354 102.075 9.55538C101.919 9.71592 101.833 9.9319 101.836 10.1559C101.839 10.3798 101.931 10.5935 102.091 10.7498L106.935 15.4722L105.79 22.1404C105.764 22.2955 105.781 22.4551 105.84 22.6009C105.899 22.7468 105.998 22.8731 106.125 22.9657C106.253 23.0582 106.404 23.1131 106.561 23.1243C106.718 23.1355 106.875 23.1025 107.014 23.029L113.002 19.8808L118.99 23.029C119.153 23.116 119.343 23.145 119.525 23.1134C119.984 23.0343 120.292 22.5992 120.213 22.1404L119.069 15.4722L123.913 10.7498C124.044 10.6206 124.131 10.4519 124.158 10.2673C124.229 9.80587 123.907 9.37872 123.446 9.31016Z" fill="#0083FF"/>
<path d="M123.446 9.31016L116.751 8.33721L113.759 2.27013C113.677 2.10401 113.542 1.96954 113.376 1.8878C112.96 1.68214 112.453 1.85353 112.245 2.27013L109.252 8.33721L102.558 9.31016C102.373 9.33653 102.205 9.42354 102.075 9.55538C101.919 9.71592 101.833 9.9319 101.836 10.1559C101.839 10.3798 101.931 10.5935 102.091 10.7498L106.935 15.4722L105.79 22.1404C105.764 22.2955 105.781 22.4551 105.84 22.6009C105.899 22.7468 105.998 22.8731 106.125 22.9657C106.253 23.0582 106.404 23.1131 106.561 23.1243C106.718 23.1355 106.875 23.1025 107.014 23.029L113.002 19.8808L118.99 23.029C119.153 23.116 119.343 23.145 119.525 23.1134C119.984 23.0343 120.292 22.5992 120.213 22.1404L119.069 15.4722L123.913 10.7498C124.044 10.6206 124.131 10.4519 124.158 10.2673C124.229 9.80587 123.907 9.37872 123.446 9.31016Z" fill="url(#paint3_linear_1040_93610)"/>
<path d="M156.444 9.31016L149.749 8.33721L146.757 2.27013C146.675 2.10401 146.54 1.96954 146.374 1.8878C145.958 1.68214 145.451 1.85353 145.243 2.27013L142.251 8.33721L135.556 9.31016C135.371 9.33653 135.203 9.42354 135.073 9.55538C134.917 9.71592 134.831 9.9319 134.834 10.1559C134.837 10.3798 134.929 10.5935 135.089 10.7498L139.933 15.4722L138.788 22.1404C138.762 22.2955 138.779 22.4551 138.838 22.6009C138.897 22.7468 138.996 22.8731 139.124 22.9657C139.251 23.0582 139.402 23.1131 139.559 23.1243C139.716 23.1355 139.873 23.1025 140.012 23.029L146 19.8808L151.988 23.029C152.151 23.116 152.341 23.145 152.523 23.1134C152.982 23.0343 153.29 22.5992 153.211 22.1404L152.067 15.4722L156.911 10.7498C157.042 10.6206 157.13 10.4519 157.156 10.2673C157.227 9.80587 156.905 9.37872 156.444 9.31016Z" fill="#0083FF"/>
<path d="M156.444 9.31016L149.749 8.33721L146.757 2.27013C146.675 2.10401 146.54 1.96954 146.374 1.8878C145.958 1.68214 145.451 1.85353 145.243 2.27013L142.251 8.33721L135.556 9.31016C135.371 9.33653 135.203 9.42354 135.073 9.55538C134.917 9.71592 134.831 9.9319 134.834 10.1559C134.837 10.3798 134.929 10.5935 135.089 10.7498L139.933 15.4722L138.788 22.1404C138.762 22.2955 138.779 22.4551 138.838 22.6009C138.897 22.7468 138.996 22.8731 139.124 22.9657C139.251 23.0582 139.402 23.1131 139.559 23.1243C139.716 23.1355 139.873 23.1025 140.012 23.029L146 19.8808L151.988 23.029C152.151 23.116 152.341 23.145 152.523 23.1134C152.982 23.0343 153.29 22.5992 153.211 22.1404L152.067 15.4722L156.911 10.7498C157.042 10.6206 157.13 10.4519 157.156 10.2673C157.227 9.80587 156.905 9.37872 156.444 9.31016Z" fill="url(#paint4_linear_1040_93610)"/>
<defs>
<linearGradient id="paint0_linear_1040_93610" x1="13.9999" y1="1.80078" x2="13.9999" y2="23.1265" gradientUnits="userSpaceOnUse">
<stop stop-color="#FDD974"/>
<stop offset="1" stop-color="#FABB61"/>
</linearGradient>
<linearGradient id="paint1_linear_1040_93610" x1="47.0018" y1="1.80078" x2="47.0018" y2="23.1265" gradientUnits="userSpaceOnUse">
<stop stop-color="#FDD974"/>
<stop offset="1" stop-color="#FABB61"/>
</linearGradient>
<linearGradient id="paint2_linear_1040_93610" x1="79.9999" y1="1.80078" x2="79.9999" y2="23.1265" gradientUnits="userSpaceOnUse">
<stop stop-color="#FDD974"/>
<stop offset="1" stop-color="#FABB61"/>
</linearGradient>
<linearGradient id="paint3_linear_1040_93610" x1="113.002" y1="1.80078" x2="113.002" y2="23.1265" gradientUnits="userSpaceOnUse">
<stop stop-color="#FDD974"/>
<stop offset="1" stop-color="#FABB61"/>
</linearGradient>
<linearGradient id="paint4_linear_1040_93610" x1="146" y1="1.80078" x2="146" y2="23.1265" gradientUnits="userSpaceOnUse">
<stop stop-color="#FDD974"/>
<stop offset="1" stop-color="#FABB61"/>
</linearGradient>
</defs>
</svg>
