<svg width="131" height="35" viewBox="0 0 131 35" fill="none" xmlns="http://www.w3.org/2000/svg">
<g clip-path="url(#clip0_1054_88181)">
<path fill-rule="evenodd" clip-rule="evenodd" d="M23.8198 26.6056C23.8198 26.2246 23.5738 25.9426 23.0718 25.8326V25.5856C23.3498 25.5856 24.2758 25.6236 24.5368 25.6236C24.7618 25.6236 25.6588 25.5856 25.9368 25.5856V25.8326C25.4718 25.9246 25.2268 26.2026 25.2268 26.6056V31.4456C25.2268 32.9776 26.0588 33.8446 27.7998 33.8446C29.2998 33.8446 30.4678 33.1636 30.4678 31.5596V26.5866C30.4678 26.2266 30.2438 25.9426 29.6818 25.8326V25.5856C29.8868 25.5856 30.6518 25.6236 30.9138 25.6236C31.1378 25.6236 31.9408 25.5856 32.1468 25.5856V25.8326C31.6048 25.9626 31.3638 26.2086 31.3638 26.5866V31.2926C31.3638 33.4046 30.1478 34.6176 27.5258 34.6176C25.0848 34.6176 23.8198 33.4956 23.8198 31.5116V26.6056ZM34.2908 34.2386C34.8588 34.1316 35.0838 33.8406 35.0838 33.4836V26.7946C35.0838 26.2276 34.7848 25.9716 34.2758 25.8316V25.5846C34.5638 25.6066 35.0468 25.6196 35.2938 25.6196C35.5178 25.6196 35.8668 25.6156 36.1018 25.5846L41.8398 32.4066V26.5866C41.8398 26.2286 41.6148 25.9426 41.0548 25.8316V25.5846C41.2608 25.5846 41.9988 25.6236 42.2608 25.6236C42.4898 25.6236 43.2808 25.5846 43.4888 25.5846V25.8316C42.9418 25.9616 42.6778 26.2096 42.6778 26.5866V34.6166H42.3318C42.1138 34.5666 41.7028 34.3306 41.0758 33.6356L35.9418 27.5886V33.4836C35.9418 33.8426 36.1468 34.1266 36.7068 34.2386V34.4856C36.5018 34.4856 35.7628 34.4456 35.5008 34.4456C35.2748 34.4456 34.4998 34.4856 34.2908 34.4856V34.2386ZM79.5698 32.4346H79.8128C79.9408 32.9346 80.2238 33.3896 80.6208 33.6536C81.0328 33.9476 81.6808 34.0876 82.2028 34.0876C83.3568 34.0876 84.0888 33.5096 84.0888 32.5946C84.0888 31.6476 83.1518 31.1546 82.0288 30.5876C81.1928 30.1646 79.5518 29.4676 79.5518 27.8626C79.5518 26.3686 80.6798 25.4396 82.4818 25.4396C83.6718 25.4396 84.2298 25.7336 85.0328 25.6956L85.0178 27.5086H84.7708C84.4508 26.4396 83.4908 26.0686 82.4398 26.0686C81.2648 26.0686 80.8248 26.7476 80.8248 27.4386C80.8248 28.4276 81.7828 28.9266 82.8678 29.4156C84.0878 29.9656 85.4118 30.6586 85.4118 32.2056C85.4118 33.6676 84.2798 34.7276 82.2108 34.7276C80.9798 34.7276 80.2408 34.3726 79.5938 34.2916L79.5688 32.4346H79.5698ZM104.229 30.8036L101.893 27.0136C101.494 26.3486 101.189 25.9976 100.744 25.8316V25.5856C101.064 25.5856 101.929 25.6246 102.174 25.6246C102.397 25.6246 103.33 25.5846 103.667 25.5846V25.8316C103.369 25.8846 103.229 26.0356 103.229 26.2636C103.229 26.4646 103.364 26.7236 103.499 26.9486C103.633 27.1706 105.222 29.8366 105.222 29.8366L106.882 26.9496C107.05 26.6596 107.168 26.3726 107.168 26.1836C107.168 26.0116 107.048 25.8686 106.765 25.8316V25.5856C107.045 25.5856 107.636 25.6246 107.825 25.6246C108.012 25.6246 108.691 25.5846 108.97 25.5846V25.8146C108.331 26.0786 107.933 26.6446 107.546 27.3016L105.422 30.8916L104.229 30.8036ZM105.567 30.4386V33.4656C105.567 33.7656 105.793 34.1436 106.304 34.2386V34.4856C106.019 34.4856 105.089 34.4456 104.82 34.4456C104.594 34.4456 103.701 34.4856 103.38 34.4856V34.2386C103.892 34.1436 104.138 33.7666 104.138 33.4656V30.5706L105.567 30.4386ZM60.8158 25.5856H66.2948C66.4648 25.5856 66.7608 25.5656 66.9298 25.4916H67.1748L67.1368 27.2916H66.8938C66.6858 26.7256 66.4688 26.2716 65.4088 26.2716H63.0298V29.4086H64.8628C65.1308 29.4086 65.4548 29.3856 65.5948 29.3516C66.0068 29.2616 66.1878 29.0296 66.2718 28.6736H66.5158C66.4988 28.9446 66.4988 29.5636 66.4988 29.7476C66.4988 29.9316 66.5158 30.5826 66.5158 30.8776H66.2718C66.1538 30.5236 65.9928 30.2536 65.5948 30.1556C65.4548 30.1176 65.1248 30.0866 64.8628 30.0866H63.0308V33.7666H65.6178C66.7478 33.7666 67.0768 33.2896 67.3578 32.6166L67.5988 32.6736L67.3568 34.5226C66.5168 34.4476 66.0128 34.4476 65.0588 34.4476H62.3248C62.0618 34.4476 61.0948 34.4856 60.8148 34.4856V34.2396C61.3078 34.1446 61.5948 33.8976 61.5948 33.4196V26.6146C61.5948 26.1926 61.3708 25.9296 60.8168 25.8346V25.5856H60.8158ZM46.8228 26.6626C46.8228 26.2066 46.5538 25.9556 46.0258 25.8396V25.5956C46.3198 25.5956 47.2708 25.6326 47.5478 25.6326C47.7798 25.6326 48.7578 25.5956 49.0548 25.5956V25.8396C48.5298 25.9556 48.2548 26.1826 48.2548 26.6626V33.4206C48.2548 33.8766 48.5248 34.1256 49.0548 34.2386V34.4856C48.7578 34.4856 47.8208 34.4476 47.5478 34.4476C47.3118 34.4476 46.3198 34.4856 46.0248 34.4856V34.2386C46.5648 34.1366 46.8228 33.8986 46.8228 33.4206V26.6626ZM88.3838 26.6626C88.3838 26.2066 88.1118 25.9556 87.5838 25.8396V25.5956C87.8788 25.5956 88.8298 25.6326 89.1048 25.6326C89.3398 25.6326 90.3168 25.5956 90.6138 25.5956V25.8396C90.0888 25.9556 89.8138 26.1826 89.8138 26.6626V33.4206C89.8138 33.8766 90.0838 34.1256 90.6138 34.2386V34.4856C90.3188 34.4856 89.3828 34.4476 89.1048 34.4476C88.8728 34.4476 87.8788 34.4856 87.5848 34.4856V34.2386C88.1228 34.1366 88.3838 33.8986 88.3838 33.4206V26.6626ZM95.9988 25.6236C92.9958 25.6236 92.5148 25.5666 91.9008 25.5286L91.9058 27.3616H92.1508C92.3748 26.5486 92.8228 26.3596 93.4018 26.3596H95.2858V33.4206C95.2858 33.8976 95.0278 34.1366 94.4868 34.2386V34.4856C94.7838 34.4856 95.7848 34.4476 96.0158 34.4476C96.2908 34.4476 97.2308 34.4856 97.5238 34.4856V34.2386C96.9928 34.1256 96.7238 33.8766 96.7238 33.4206V26.3606H98.5928C99.1938 26.3606 99.6238 26.5666 99.8478 27.3616H100.09L100.094 25.5286C99.4838 25.5666 99.0038 25.6236 95.9988 25.6236ZM72.0338 33.4196C72.0338 33.8766 72.3208 34.1246 72.8508 34.2386V34.4856C72.5568 34.4856 71.5958 34.4476 71.3218 34.4476C71.0868 34.4476 70.1488 34.4856 69.8528 34.4856V34.2386C70.3448 34.1436 70.6348 33.8986 70.6348 33.4206V26.5936C70.6348 26.1736 70.4088 25.9096 69.8548 25.8136V25.5686C70.1488 25.5686 71.0778 25.6066 71.3408 25.6066C71.7708 25.6066 72.9928 25.5336 73.4728 25.5336C75.5788 25.5336 76.7508 26.4136 76.7508 27.9226C76.7508 29.1086 75.8778 29.9106 74.5348 30.2386C74.5348 30.2386 74.8408 30.4186 75.1468 30.7786C75.5178 31.2206 76.5208 32.6746 76.9368 33.1836C77.3518 33.6936 77.8838 34.2636 78.4538 34.2886V34.4886C78.1808 34.5486 77.7428 34.6006 77.4078 34.6006C76.6928 34.6006 76.1218 34.3456 75.5678 33.6676C75.0878 33.0776 74.2748 31.8526 73.7958 31.2336C73.4888 30.8396 73.1178 30.5316 72.4378 30.4186C72.3078 30.3956 72.1828 30.3766 72.0338 30.3586V33.4206V33.4196ZM72.0338 29.7926C72.3138 29.8316 72.7258 29.8496 73.1338 29.8496C74.7818 29.8496 75.3008 28.8906 75.3008 28.0426C75.3008 26.8426 74.5078 26.0986 73.0658 26.0986C72.7678 26.0986 72.3348 26.1366 72.0338 26.1936V29.7926ZM51.1658 26.6916C50.9738 26.2616 50.6798 25.9466 50.1768 25.8356V25.5846C50.4888 25.5846 51.5718 25.6246 51.8088 25.6246C52.0278 25.6246 52.9738 25.5846 53.2948 25.5846V25.8286C53.0098 25.8836 52.6848 26.0426 52.6848 26.3386C52.6848 26.5486 52.8108 26.8366 53.0528 27.3766L55.3208 32.5946L57.4668 27.3676C57.6368 26.9466 57.7588 26.6196 57.7588 26.3696C57.7588 26.0936 57.5078 25.9026 57.1508 25.8286V25.5846C57.4358 25.5846 58.1348 25.6246 58.3528 25.6246C58.5508 25.6246 59.3718 25.5846 59.6848 25.5846V25.8346C59.1498 25.9816 58.8228 26.2796 58.5228 26.9856L55.3628 34.5176H54.6488L51.1658 26.6916ZM59.2648 2.93959C58.8998 2.12359 58.3398 1.52959 57.3908 1.31659V0.842594C57.9808 0.842594 59.9408 0.913594 60.3918 0.913594C60.8068 0.913594 62.7058 0.842594 63.3118 0.842594V1.30459C62.7748 1.41059 62.1578 1.71459 62.1578 2.27359C62.1578 2.66859 62.4008 3.21359 62.8508 4.23659L67.1528 14.1246L71.2228 4.21959C71.5408 3.41759 71.7768 2.80459 71.7768 2.33059C71.7768 1.80359 71.2958 1.44659 70.6208 1.30459V0.842594C71.1588 0.842594 72.4688 0.913594 72.8848 0.913594C73.2628 0.913594 74.8178 0.842594 75.4088 0.842594V1.29059C74.3948 1.56859 73.7738 2.15759 73.2088 3.49559L67.2248 17.7716H65.8708L59.2648 2.93959ZM1.3418 17.2286C2.1238 17.0486 2.6718 16.6886 2.6718 15.7936V2.70459C2.6718 1.84559 2.1618 1.48859 1.3418 1.27359V0.808594C1.7518 0.808594 3.5198 0.878594 3.9498 0.878594C4.4448 0.878594 6.2978 0.808594 6.7048 0.808594V1.27359C5.9248 1.45259 5.3458 1.81059 5.3458 2.70459V8.17259H14.9888V2.70459C14.9888 1.81059 14.4748 1.45259 13.6608 1.27359V0.808594C14.0678 0.808594 15.8868 0.878594 16.3808 0.878594C16.8088 0.878594 18.6168 0.808594 19.0208 0.808594V1.27359C18.2388 1.45259 17.6608 1.81059 17.6608 2.70459V15.7936C17.6608 16.6536 18.2038 17.0136 19.0208 17.2286V17.6566C18.6168 17.6566 16.8088 17.6216 16.3808 17.6216C15.8868 17.6216 14.0678 17.6566 13.6608 17.6566V17.2286C14.4358 17.0486 14.9888 16.6886 14.9888 15.7936V9.60759H5.3458V15.7936C5.3458 16.6886 5.8888 17.0136 6.7058 17.2286V17.6566C6.2978 17.6566 4.4458 17.6216 3.9498 17.6216C3.5198 17.6216 1.7528 17.6566 1.3418 17.6566V17.2286Z" fill="#B2B2B2"/>
<mask id="mask0_1054_88181" style="mask-type:alpha" maskUnits="userSpaceOnUse" x="112" y="0" width="19" height="18">
<path d="M112.885 0.699219H130.166V17.7612H112.885V0.699219Z" fill="white"/>
</mask>
<g mask="url(#mask0_1054_88181)">
<path fill-rule="evenodd" clip-rule="evenodd" d="M112.885 17.2272C113.885 17.0472 114.437 16.6452 114.437 15.7212V2.70422C114.437 1.80722 113.893 1.45122 112.927 1.27222V0.807219C113.483 0.807219 115.297 0.877219 115.799 0.877219C116.609 0.878219 118.872 0.699219 120.632 0.699219C126.564 0.699219 130.166 4.04922 130.166 9.14122C130.166 14.0922 126.418 17.7612 120.302 17.7612C118.539 17.7612 116.447 17.6202 115.629 17.6202C115.131 17.6202 113.44 17.6912 112.885 17.6912V17.2272ZM117.108 16.3642C117.712 16.4752 118.828 16.5442 119.708 16.5442C124.692 16.5442 127.286 13.5122 127.286 9.28222C127.286 4.89722 124.549 1.81222 119.89 1.81222C118.938 1.81222 117.749 1.88422 117.108 1.98922V16.3642Z" fill="#B2B2B2"/>
</g>
<path fill-rule="evenodd" clip-rule="evenodd" d="M45.7376 15.6737C45.7376 16.5407 46.2816 17.0127 47.2816 17.2267V17.6917C46.7236 17.6917 44.9096 17.6207 44.3876 17.6207C43.9476 17.6207 42.1676 17.6907 41.6106 17.6907V17.2267C42.5386 17.0467 43.0866 16.5797 43.0866 15.6737V2.74966C43.0866 1.95466 42.6616 1.45166 41.6126 1.27266V0.807656C42.1696 0.807656 43.9286 0.877656 44.4226 0.877656C45.2376 0.877656 47.5506 0.740656 48.4626 0.740656C52.4526 0.740656 54.6726 2.40866 54.6726 5.26266C54.6726 7.51266 53.0166 9.02566 50.4736 9.65066C50.4736 9.65066 51.0506 9.99066 51.6306 10.6747C52.3346 11.5117 54.2776 14.3237 55.0626 15.2867C55.8486 16.2507 56.8556 17.3277 57.9326 17.3777V17.7577C57.4166 17.8697 56.5906 17.9657 55.9586 17.9657C54.5986 17.9657 53.5186 17.4847 52.4686 16.1977C51.5626 15.0807 49.9786 12.7067 49.0706 11.5337C48.4906 10.7877 47.7906 10.2057 46.5076 9.99066C46.2546 9.94666 46.0176 9.91266 45.7376 9.88066V15.6737ZM45.7376 8.80966C46.2656 8.87966 47.0456 8.91466 47.8196 8.91466C50.9396 8.91466 51.9196 7.09966 51.9196 5.49466C51.9196 3.21666 50.4196 1.81166 47.6866 1.81166C47.1236 1.81166 46.3026 1.88466 45.7376 1.98966V8.80966ZM98.3176 15.6737C98.3176 16.5407 98.8626 17.0127 99.8636 17.2267V17.6917C99.3076 17.6917 97.4946 17.6207 96.9736 17.6207C96.5236 17.6207 94.7506 17.6907 94.1916 17.6907V17.2267C95.1186 17.0467 95.6666 16.5797 95.6666 15.6737V2.74966C95.6666 1.95466 95.2376 1.45166 94.1946 1.27266V0.807656C94.7546 0.807656 96.5066 0.877656 97.0046 0.877656C97.8216 0.877656 100.135 0.740656 101.041 0.740656C105.037 0.740656 107.251 2.40866 107.251 5.26266C107.251 7.51266 105.598 9.02566 103.054 9.65066C103.054 9.65066 103.634 9.99066 104.209 10.6747C104.919 11.5117 106.862 14.3237 107.645 15.2867C108.433 16.2507 109.441 17.3277 110.512 17.3777V17.7577C110.002 17.8697 109.172 17.9657 108.547 17.9657C107.184 17.9657 106.099 17.4847 105.051 16.1977C104.145 15.0807 102.566 12.7067 101.65 11.5337C101.07 10.7877 100.373 10.2057 99.0916 9.99066C98.8356 9.94666 98.6006 9.91266 98.3176 9.88066V15.6737ZM98.3176 8.80966C98.8516 8.87966 99.6276 8.91466 100.402 8.91466C103.523 8.91466 104.501 7.09966 104.501 5.49466C104.501 3.21666 102.999 1.81166 100.271 1.81166C99.7026 1.81166 98.8866 1.88466 98.3176 1.98966V8.80966ZM21.5576 17.2237C22.6126 16.9747 23.1926 16.2837 23.5776 15.3587L28.9176 2.36566C29.1456 1.82766 29.4096 0.722656 29.4096 0.722656H30.9046C30.9046 0.722656 31.1716 1.83066 31.3936 2.36966L37.0376 15.3947C37.4406 16.2917 37.8756 16.9387 38.9976 17.2247L38.9956 17.6567C38.3846 17.6567 36.4846 17.6217 36.0526 17.6217C35.6226 17.6217 33.8086 17.6567 33.1986 17.6567L33.2006 17.2237C34.0216 17.0207 34.2806 16.5977 34.2806 16.1887C34.2806 15.8407 34.1396 15.4487 33.9666 15.0417L32.7536 12.2437H26.5346L25.4236 15.0577C25.2986 15.3767 25.1516 15.8277 25.1516 16.1307C25.1516 16.6007 25.3936 16.9747 26.3266 17.2237L26.3246 17.6567C25.7716 17.6567 24.3146 17.6217 23.9726 17.6217L21.5566 17.6567V17.2237H21.5576ZM32.1906 10.9167L29.5346 4.66066L27.0616 10.9167H32.1916H32.1906ZM74.4666 17.2237C75.5216 16.9747 76.1036 16.2837 76.4866 15.3587L81.8286 2.36566C82.0556 1.82766 82.3226 0.722656 82.3226 0.722656H83.8176C83.8176 0.722656 84.0816 1.83066 84.3036 2.36966L89.9496 15.3947C90.3486 16.2917 90.7886 16.9387 91.9056 17.2247L91.9036 17.6567C91.2946 17.6567 89.3936 17.6217 88.9586 17.6217C88.5326 17.6217 86.7186 17.6567 86.1086 17.6567V17.2237C86.9346 17.0207 87.1896 16.5977 87.1896 16.1887C87.1896 15.8407 87.0496 15.4487 86.8796 15.0417L85.6626 12.2437H79.4426L78.3306 15.0587C78.2066 15.3777 78.0596 15.8287 78.0596 16.1317C78.0596 16.6017 78.3026 16.9757 79.2346 17.2247V17.6577C78.6806 17.6577 77.2246 17.6227 76.8806 17.6227L74.4646 17.6577L74.4666 17.2247V17.2237ZM85.1006 10.9167L82.4426 4.66066L79.9706 10.9167H85.1006Z" fill="#B2B2B2"/>
</g>
<defs>
<clipPath id="clip0_1054_88181">
<rect width="130" height="35" fill="white" transform="translate(0.970703)"/>
</clipPath>
</defs>
</svg>
