<svg width="147" height="27" viewBox="0 0 147 27" fill="none" xmlns="http://www.w3.org/2000/svg">
<g clip-path="url(#clip0_1054_88161)">
<path d="M0.125 0.925781V13.7939V26.6618H2.98995H5.85489V22.4579V18.2537L7.53362 18.2732L9.21213 18.2926L11.6764 22.4774L14.1405 26.6618H17.4289H20.7173L17.8523 21.9071C16.2766 19.2918 14.9971 17.1479 15.0089 17.1428C15.9787 16.7202 16.9785 16.053 17.6761 15.3626C18.7549 14.2953 19.3973 13.0804 19.7557 11.4305C19.9383 10.5901 19.939 8.41502 19.7571 7.50668C19.0372 3.91334 16.6227 1.8084 12.4184 1.10932C11.7982 1.0062 10.8605 0.98441 5.90935 0.957403L0.125 0.925781ZM5.85489 5.93819H8.20586C10.6961 5.93819 11.2035 5.98593 12.0379 6.29908C12.5833 6.50375 13.2302 6.99984 13.5267 7.44057C13.9384 8.05263 14.0686 8.49327 14.1075 9.40732C14.1649 10.7544 13.9097 11.5164 13.1455 12.2792C12.6268 12.797 12.1593 13.0606 11.3909 13.2687C10.8802 13.407 10.5799 13.4257 8.39357 13.4554C7.05716 13.4735 5.93927 13.4633 5.90935 13.4328C5.87943 13.4023 5.85489 11.7037 5.85489 9.65786V5.93819Z" fill="#B2B2B2"/>
<path d="M26.0918 13.8012V0.939453H34.8319H43.5721V3.43935V5.93924H37.697H31.8219V8.58405V11.2289H36.9716H42.1214V13.7288V16.2287H36.9716H31.8219V18.9822V21.7357H35.6661C37.7804 21.7357 39.5103 21.7513 39.5103 21.7703C39.5103 21.8027 37.7859 25.0884 37.1995 26.1734L36.9354 26.662L31.5136 26.6625L26.0918 26.6629V13.8012Z" fill="#B2B2B2"/>
<path d="M42.9423 26.5727C42.963 26.5225 46.0135 20.7426 49.7211 13.7284L56.4623 0.975288L59.9629 0.956472C62.755 0.941464 63.4559 0.956131 63.426 1.02893C63.4053 1.07913 60.354 6.8591 56.6453 13.8733L49.9021 26.6264L46.4034 26.6452C43.6128 26.6602 42.9123 26.6455 42.9423 26.5727Z" fill="#B2B2B2"/>
<path d="M63.5898 19.4147V12.1664L66.5366 6.58914C68.1573 3.52166 69.5058 1.01191 69.5334 1.01191C69.5609 1.01191 69.8789 1.42766 70.2399 1.93579C70.8566 2.80371 73.917 7.12475 74.9614 8.60217C75.222 8.97081 75.4546 9.27116 75.4783 9.2696C75.502 9.26804 76.827 7.39355 78.4227 5.10405L81.324 0.941319L84.3159 0.940386L87.3079 0.939453V13.8012V26.663H84.5154H81.7229V18.6923C81.7229 14.3084 81.6984 10.7229 81.6685 10.7245C81.6386 10.7261 80.2444 12.5209 78.5704 14.7129C76.3759 17.5866 75.4919 18.6925 75.4017 18.6772C75.3328 18.6656 73.9118 16.8802 72.2438 14.7096L69.2111 10.7632L69.1926 18.7131L69.1742 26.663H66.382H63.5898V19.4147Z" fill="#B2B2B2"/>
<path d="M101.471 0.792969L101.392 0.99243C101.348 1.10203 100.27 3.97945 98.9961 7.38692C97.7222 10.7944 95.5834 16.5104 94.2433 20.0892C92.9031 23.668 91.8066 26.6108 91.8066 26.6288C91.8066 26.6468 93.104 26.6612 94.6897 26.6608L97.5731 26.6604L97.875 25.8095C98.0411 25.3415 98.4783 24.1027 98.8463 23.0566L99.5154 21.1546H104.075C106.582 21.1546 108.634 21.163 108.634 21.1734C108.634 21.225 110.579 26.6 110.609 26.6292C110.627 26.6479 111.967 26.6546 113.586 26.6442L116.528 26.6252L114.576 21.408C113.502 18.5386 111.326 12.7263 109.741 8.49191L106.859 0.792969H104.165H101.471ZM104.062 8.45565C104.102 8.40832 106.829 16.1017 106.823 16.2453C106.822 16.2752 105.581 16.2997 104.065 16.2997C102.549 16.2997 101.308 16.2752 101.307 16.2453C101.305 16.1635 104.009 8.51857 104.062 8.45565Z" fill="#B2B2B2"/>
<path d="M119.395 25.6674C126.741 13.6499 126.77 13.6024 126.658 13.4321C126.412 13.0573 119.149 1.00852 119.149 0.975547C119.149 0.955695 120.61 0.939453 122.396 0.939453H125.644L127.866 4.97689C129.088 7.19748 130.115 9.02357 130.149 9.03486C130.183 9.04614 131.218 7.25375 132.449 5.05176C133.68 2.84977 134.71 1.02334 134.738 0.993027C134.765 0.962713 136.213 0.946409 137.954 0.956797L141.119 0.975684L138.94 4.52626C137.742 6.47907 136.04 9.2507 135.159 10.6854C134.278 12.1201 133.525 13.3466 133.486 13.4108C133.413 13.5314 133.552 13.7767 135.541 17.0257C135.968 17.7232 137.42 20.1035 138.768 22.3154C140.116 24.5272 141.267 26.4106 141.326 26.5007L141.434 26.6645L138.146 26.6456L134.859 26.6268L132.487 22.3901C131.182 20.06 130.086 18.1441 130.052 18.1326C130.017 18.121 129.785 18.4787 129.536 18.9273C129.287 19.3759 128.208 21.2919 127.138 23.1849L125.192 26.6268L121.988 26.6456L118.785 26.6645L119.395 25.6674Z" fill="#B2B2B2"/>
<path d="M144.202 0.0762785C143.72 0.0814561 143.239 0.274959 142.858 0.655425C141.928 1.58401 142.312 3.28823 143.55 3.72718C143.984 3.88138 144.585 3.86649 144.972 3.69157C146.222 3.12694 146.518 1.56163 145.551 0.626677C145.166 0.254418 144.683 0.071101 144.202 0.0762785V0.0762785ZM144.264 0.366183C144.815 0.373078 145.337 0.692605 145.629 1.25956C145.74 1.47505 145.782 1.77895 145.76 2.07996C145.738 2.38097 145.653 2.67917 145.511 2.88311C145.396 3.0496 145.167 3.26311 145.007 3.35545C144.451 3.67439 143.883 3.64595 143.351 3.27209C142.381 2.59101 142.468 1.12485 143.512 0.557021C143.756 0.424384 144.013 0.363049 144.264 0.366183V0.366183Z" fill="#B2B2B2"/>
<path d="M143.52 0.935547V1.98615V3.03697H143.882V2.16726H144.134C144.425 2.16726 144.563 2.33114 144.639 2.7652C144.659 2.87999 144.693 3.03873 144.744 3.03822L144.87 3.03697L145.025 3.03697C145.047 3.01736 145.03 2.95853 145.016 2.91004C144.995 2.8403 144.943 2.64578 144.9 2.47773C144.856 2.30967 144.846 2.19775 144.758 2.12743C144.708 2.08811 144.616 2.02497 144.626 1.9939C144.637 1.96284 144.683 1.94772 144.772 1.87801C145.043 1.66458 145.047 1.29607 144.779 1.0857C144.625 0.964638 144.484 0.935547 144.054 0.935547L143.52 0.935547ZM143.882 1.15292H144.136C144.397 1.15292 144.68 1.35417 144.68 1.54012C144.68 1.59373 144.62 1.69154 144.547 1.7575C144.475 1.82345 144.295 1.87757 144.148 1.87757H143.882V1.51514V1.15292Z" fill="#B2B2B2"/>
</g>
<defs>
<clipPath id="clip0_1054_88161">
<rect width="146.153" height="26.738" fill="white" transform="translate(0.0527344)"/>
</clipPath>
</defs>
</svg>
