<svg width="176" height="38" viewBox="0 0 176 38" fill="none" xmlns="http://www.w3.org/2000/svg">
<g clip-path="url(#clip0_1054_88149)">
<path fill-rule="evenodd" clip-rule="evenodd" d="M59.0649 27.7004L67.7151 27.7013L67.7099 27.4699C67.7151 27.4699 65.9563 27.4246 66.0102 24.3357C66.0102 24.3357 66.0017 14.8129 66.0008 14.8092C66.0102 8.19188 59.2252 8.43268 59.2252 8.43268C56.3837 8.48541 54.4584 10.1901 53.9861 10.6549L53.987 8.45648L45.2682 8.79668V9.03981C47.0719 9.15881 46.915 11.8529 46.915 11.9229V24.8491C46.323 24.8519 45.2843 24.8542 45.2843 24.8304C42.37 24.6643 42.369 21.7163 42.3766 21.6337C42.3766 21.6337 42.3005 15.6739 42.3005 15.7108C42.335 11.4352 39.7573 10.0711 39.7923 10.0352C34.9173 7.05415 27.9318 9.10188 27.9318 9.10188C27.9318 9.10188 26.4401 13.7695 26.4027 13.7349C33.8176 10.5289 35.0308 13.7027 34.9915 13.5898C35.1168 13.9048 35.1348 14.1843 35.0757 14.4326C34.8332 15.8205 32.2588 16.1863 32.228 16.1863C29.1714 16.7253 27.5682 17.29 27.5682 17.29C22.8733 18.8687 23.4917 22.7831 23.4917 22.8195C24.2922 27.8465 31.1695 27.7041 31.1695 27.7041H34.1178L35.6085 24.6876C32.5519 25.2971 31.6058 23.6441 31.6058 23.6441C30.3336 21.5619 32.2616 20.3425 32.2616 20.3425C33.0138 19.7657 35.4256 19.2304 35.4256 19.2304V22.2819C35.6672 27.9183 41.7497 27.7182 41.9393 27.6948H46.9202V27.6962L55.6659 27.7013V27.4746C55.6622 27.4746 54.0495 27.4176 53.9762 24.7347L53.9828 16.0244C53.9223 12.7965 56.6163 12.7563 56.6092 12.7512C59.2299 12.7274 59.045 15.0206 59.0592 15.5325C59.0592 15.5325 59.063 24.3357 59.062 24.339H59.124L59.0649 24.3474V27.7004Z" fill="#B2B2B2"/>
<path fill-rule="evenodd" clip-rule="evenodd" d="M20.1624 0.00390625V0.232573C22.9051 1.28957 21.8815 3.95051 21.8815 3.95051L16.8586 19.7859L10.0706 0.0496396H0.583984V0.329173C2.21229 0.697373 3.00186 3.49224 3.00186 3.49224L9.23189 20.6128C10.9529 25.4312 14.1787 26.3841 14.1787 26.3841L18.1611 27.9106L27.7409 0.00390625H20.1624Z" fill="#B2B2B2"/>
<path fill-rule="evenodd" clip-rule="evenodd" d="M169.199 24.3391L169.195 0.0546875L160.376 0.395354V0.638488C162.177 0.757488 162.022 3.45202 162.022 3.52342V9.81269C155.859 5.93049 151.386 10.9644 151.416 10.8706C148.534 13.7154 148.659 18.1973 148.629 18.166C148.629 22.8971 151.416 25.3093 151.416 25.3093C155.08 29.205 159.498 27.6893 159.498 27.6893C159.498 27.6893 161.409 24.319 161.409 24.2896C155.959 25.1852 155.959 18.1973 155.989 18.166C155.989 12.1694 159.215 12.5091 159.245 12.4778C162.022 12.5082 162.02 15.6642 162.02 15.5513L162.025 15.7977V27.6991L162.026 27.6986V27.6991L170.928 27.7042V27.477C170.924 27.477 169.154 27.6473 169.199 24.3391Z" fill="#B2B2B2"/>
<path fill-rule="evenodd" clip-rule="evenodd" d="M142.714 10.9495V8.45284L133.995 8.79397V9.0371C135.799 9.15564 135.645 11.8502 135.645 11.9234L135.639 23.319H135.64L135.641 24.845C135.074 24.8492 133.903 24.8538 133.903 24.8272C130.988 24.6616 130.986 21.7132 130.993 21.6315C130.993 21.6315 130.919 15.6708 130.919 15.7072C130.954 11.432 128.375 10.068 128.412 10.032C123.534 7.05097 116.549 9.0987 116.549 9.0987C116.549 9.0987 115.057 13.7668 115.02 13.7322C122.435 10.5262 123.647 13.7 123.609 13.5866C123.734 13.9021 123.753 14.1816 123.692 14.4299C123.45 15.8178 120.876 16.1836 120.846 16.1836C117.788 16.7226 116.184 17.2873 116.184 17.2873C111.491 18.8665 112.109 22.78 112.109 22.8168C112.91 27.8438 119.787 27.701 119.787 27.701H122.734L124.226 24.6849C121.17 25.2939 120.223 23.6414 120.223 23.6414C118.952 21.5587 120.878 20.3398 120.878 20.3398C121.631 19.763 124.044 19.2272 124.044 19.2272V22.2788C124.286 27.9152 130.369 27.715 130.558 27.6926H135.642V27.6958H144.441V27.4676C144.361 27.4774 142.671 27.6034 142.709 24.3298L142.713 16.5985H142.716C142.717 16.6274 142.474 12.2137 148.354 13.1881V8.45097C148.354 8.45097 144.648 7.3305 142.714 10.9495Z" fill="#B2B2B2"/>
<path fill-rule="evenodd" clip-rule="evenodd" d="M77.776 18.9172C77.5883 18.9615 75.0489 18.7356 75.3241 15.2277C75.3572 15.2585 75.2546 12.0982 77.784 12.0982C77.784 12.0982 80.0785 12.0016 80.1329 15.1726C80.1329 15.2268 80.443 18.9172 77.776 18.9172ZM97.6892 8.43164H77.4928C75.1123 8.54551 72.4485 9.00097 70.3526 11.0095C70.3526 11.0095 66.7012 14.5254 69.833 18.9811C69.8605 18.9811 71.3242 21.0456 73.787 21.8282C73.7899 21.8259 73.8121 21.8306 73.8494 21.8376L73.8059 21.8469C74.0291 21.8413 72.0632 22.063 71.2027 22.5684C70.72 22.874 70.5682 23.2058 70.7011 24.037C70.8354 24.8564 71.58 27.5388 74.4494 27.6938C76.4928 27.7866 79.4298 27.4264 80.9787 28.5655C80.9787 28.5655 82.0926 29.3654 82.0926 30.707C82.0926 31.7206 81.9744 33.7982 77.6881 34.0152C77.489 34.0115 74.1336 33.9896 73.4792 31.6432C73.4759 31.6264 73.1298 29.6426 75.0877 29.3682C75.0877 29.3682 72.5128 28.769 70.3304 29.3682C67.3754 30.1778 66.5027 32.8663 68.1626 34.789C68.139 34.7642 70.5711 37.6118 77.132 37.5633C83.7436 37.7411 90.3675 35.7853 89.1921 29.2366C89.1652 29.2366 88.3997 24.5629 81.2383 24.5895H77.7032C77.7032 24.5895 76.1964 24.6973 75.8905 23.9959C75.8876 23.9903 75.2219 22.931 77.3117 22.8614L77.3127 22.8624L77.6975 22.8199C77.6975 22.8199 83.8722 22.0704 85.7847 19.4025C85.8121 19.374 88.7099 16.2147 85.7303 12.4109C85.726 12.4109 85.4679 12.0618 85.2689 11.8957H90.575C90.5708 14.2864 90.5571 21.2934 90.5812 21.3424C90.5679 27.9616 97.4736 27.7204 97.4736 27.7204C100.44 27.6653 102.405 25.8126 102.765 25.4454L102.764 27.6975L111.57 27.7008V27.4749C109.682 27.3914 109.838 24.4042 109.843 24.337L109.841 14.1352L109.844 8.45591L101.126 8.79657V9.03924C102.929 9.15824 102.773 11.8523 102.773 11.9228V17.8938L102.77 20.1347C102.767 20.1338 102.766 20.1305 102.764 20.1286C102.663 23.8074 100.065 23.3692 100.076 23.4135C97.6277 23.4364 97.6892 20.7661 97.6892 20.7661V8.43164Z" fill="#B2B2B2"/>
<path fill-rule="evenodd" clip-rule="evenodd" d="M171.421 1.91109C171.421 1.05242 172.127 0.355689 172.996 0.355689C173.864 0.355689 174.573 1.05242 174.573 1.91109C174.573 2.76789 173.864 3.46555 172.996 3.46555C172.127 3.46555 171.421 2.76789 171.421 1.91109ZM171.17 1.91109C171.17 2.90462 171.989 3.71335 172.996 3.71335C174.004 3.71335 174.824 2.90462 174.824 1.91109C174.824 0.916155 174.004 0.107422 172.996 0.107422C171.989 0.107422 171.17 0.916155 171.17 1.91109Z" fill="#B2B2B2"/>
<path fill-rule="evenodd" clip-rule="evenodd" d="M172.667 2.02362V2.98355H172.305V0.857422H173.239C173.678 0.857422 174.132 0.969422 174.132 1.39082C174.132 1.64656 173.942 1.84395 173.638 1.90322V1.90882C173.954 1.97042 173.997 2.10669 174.037 2.34469C174.079 2.55702 174.107 2.78382 174.201 2.98355H173.813C173.781 2.85755 173.736 2.71802 173.718 2.59202C173.69 2.40115 173.69 2.22662 173.57 2.12115C173.466 2.02362 173.32 2.03295 173.175 2.02362H172.667ZM172.66 1.76975H173.258C173.661 1.75622 173.751 1.60829 173.751 1.44076C173.751 1.27369 173.661 1.12576 173.258 1.11129H172.66V1.76975Z" fill="#B2B2B2"/>
</g>
<defs>
<clipPath id="clip0_1054_88149">
<rect width="174.462" height="37.8" fill="white" transform="translate(0.591797)"/>
</clipPath>
</defs>
</svg>
