<svg width="177" height="38" viewBox="0 0 177 38" fill="none" xmlns="http://www.w3.org/2000/svg">
<g clip-path="url(#clip0_1054_88173)">
<path d="M15.0442 18.1233C16.1236 18.1233 17.0657 18.1609 17.9007 18.3132C19.0891 18.522 20.0952 20.1787 20.0952 20.9873C20.0952 21.401 20.0952 21.8598 19.9147 22.5293C19.6213 23.556 17.6054 27.2493 16.7667 28.639C15.7569 27.0011 13.38 22.3751 12.5582 20.5736C12.2009 19.8176 12.0204 19.1895 12.0204 18.8811C12.0204 18.3132 13.1487 18.1233 15.0442 18.1233ZM1.57425 18.1233C2.5822 18.3734 3.17267 18.5821 4.00009 20.064C6.91297 25.4102 9.82961 31.3037 12.6673 37.1012C13.0246 37.4021 13.442 37.4698 14.0457 37.4698C14.6286 37.4698 15.0423 37.4021 15.4147 37.1031C16.7667 34.5513 20.334 27.7025 21.8723 25.0435C23.6625 28.3306 26.7446 34.3294 27.9951 37.1031C28.3412 37.404 28.7699 37.4698 29.3547 37.4698C29.9471 37.4698 30.374 37.4021 30.7181 37.1031C33.236 31.5947 35.8901 26.1496 38.6782 20.7729C39.6297 18.8811 40.0416 18.3734 42.0029 18.0086L42.8341 17.8619C43.308 17.3861 43.1858 16.271 42.6592 16.0566C41.3523 16.1601 39.8103 16.2127 38.0783 16.2127C36.5965 16.2127 35.1824 16.1601 33.2154 16.0566C32.6212 16.271 32.6212 17.4952 32.9841 17.8619L33.9845 18.0556C35.0056 18.2643 35.472 18.522 35.472 18.7834C35.472 19.1425 35.2915 19.8609 34.9229 20.7729C33.9845 23.148 33.0537 25.6659 31.6113 28.639C30.31 26.168 28.6514 22.8396 27.5758 20.3724C27.226 19.5055 27.1057 19.1877 27.1057 18.7834C27.1057 18.522 27.9275 18.2643 29.3021 18.0086L30.1859 17.8619C30.6147 17.6532 30.6598 16.1187 30.0092 16.0566C26.5074 16.16 23.0043 16.212 19.501 16.2127H7.50908C5.01555 16.2127 3.12002 16.1601 0.68666 16.0566C0.0792617 16.3143 0.0792618 17.4426 0.491089 17.8619L1.57425 18.1233Z" fill="#B2B2B2"/>
<path d="M51.1672 17.7953C53.1774 17.7953 54.3132 18.9142 54.3132 20.6122C54.3132 21.1275 54.1948 21.6465 53.8995 21.7932C53.2357 22.1543 52.2879 22.2502 51.4586 22.2502H49.266C47.3554 22.2502 46.5355 22.2125 46.5355 21.4848C46.5355 19.8375 48.6736 17.7934 51.1691 17.7934L51.1672 17.7953ZM51.1051 37.4013C54.6649 37.4013 59.0709 35.91 61.4986 31.5492C61.4986 30.6748 60.5978 30.261 59.9528 30.357C58.3488 32.7283 56.0847 33.0273 54.4279 33.0273C48.9106 33.0273 46.0522 29.287 46.0522 25.4376C46.0522 24.6177 46.1763 24.5162 47.5453 24.5162H58.9317C60.7859 24.5162 61.0755 23.7978 61.0755 22.8237C61.0755 18.8653 57.747 15.4277 51.5715 15.4277C44.1623 15.4277 38.7578 20.4618 38.7578 26.9326C38.7578 32.527 43.0923 37.4013 51.1051 37.4013ZM76.2416 18.1244C77.3267 18.1244 78.2688 18.162 79.1037 18.3143C80.2922 18.523 81.3002 20.1797 81.3002 20.9883C81.3002 21.4021 81.3002 21.8609 81.1234 22.5303C80.8187 23.5571 78.8048 27.2504 77.9773 28.6401C76.9562 27.0022 74.5924 22.3761 73.7613 20.5746C73.4115 19.8187 73.2253 19.1906 73.2253 18.8822C73.2253 18.3143 74.3461 18.1244 76.2416 18.1244ZM62.7736 18.1244C63.7909 18.3745 64.3757 18.5832 65.2069 20.065C68.1104 25.4113 71.0346 31.3047 73.876 37.1023C74.237 37.4032 74.6507 37.4709 75.245 37.4709C75.8336 37.4709 76.2416 37.4032 76.6065 37.1042C77.9792 34.5523 81.5333 27.7036 83.081 25.0446C84.8674 28.3317 87.9402 34.3304 89.1907 37.1042C89.548 37.405 89.9617 37.4709 90.5522 37.4709C91.1521 37.4709 91.5695 37.4032 91.9212 37.1042C94.442 31.5965 97.0974 26.1515 99.885 20.774C100.835 18.8822 101.245 18.3745 103.202 18.0096L104.041 17.863C104.509 17.3872 104.385 16.2721 103.859 16.0577C102.546 16.1611 101.011 16.2138 99.2814 16.2138C97.6593 16.206 96.0377 16.154 94.4185 16.0577C93.8167 16.2721 93.8167 17.4963 94.1815 17.863L95.1895 18.0567C96.2012 18.2654 96.6713 18.523 96.6713 18.7844C96.6713 19.1436 96.4926 19.8619 96.1429 20.774C95.1895 23.149 94.2379 25.667 92.8088 28.6401C91.5075 26.1691 89.8489 22.8406 88.7808 20.3734C88.4197 19.5065 88.3012 19.1887 88.3012 18.7844C88.3012 18.523 89.1268 18.2654 90.5014 18.0096L91.3852 17.863C91.8027 17.6542 91.8648 16.1198 91.2085 16.0577C87.4136 16.1611 84.4349 16.2138 80.7003 16.2138H68.7065C66.4315 16.2141 64.1567 16.162 61.8841 16.0577C61.2955 16.3153 61.2955 17.4436 61.7092 17.863L62.7736 18.1244Z" fill="#B2B2B2"/>
<path d="M113.599 17.7953C116.971 17.7953 118.635 22.0978 118.701 27.0849C118.752 31.7071 117.618 35.0413 114.231 35.0413C110.803 35.0413 108.834 31.0809 108.834 25.699C108.834 20.1102 110.984 17.7934 113.599 17.7934V17.7953ZM113.599 37.4013C120.892 37.4013 127.25 33.8622 127.25 26.3571C127.25 19.121 120.946 15.4277 113.947 15.4277C106.939 15.4277 100.229 19.4802 100.286 26.8273C100.355 33.9054 106.521 37.4013 113.599 37.4013Z" fill="#B2B2B2"/>
<path d="M137.367 19.7742C137.733 19.7742 138.26 19.8306 139.62 20.801C140.381 21.4215 141.096 21.7299 141.933 21.7299C143.828 21.7299 145.737 20.7558 145.737 18.3921C145.737 16.4533 144.074 15.3645 142.459 15.3645C139.975 15.3645 138.26 17.0569 136.646 17.9257C136.176 17.8317 136.052 17.6756 136.052 17.3127C136.052 16.8538 136.174 16.1411 136.284 15.105C136.052 14.8003 135.687 14.6367 135.23 14.6367C133.382 15.6785 129.288 17.0569 126.548 17.732C126.135 18.0329 126.135 18.9581 126.548 19.2684L127.394 19.731C128.517 20.3478 128.517 20.9608 128.517 23.0181V30.7657C128.517 34.3574 128.278 34.8182 126.317 34.9799L125.187 35.0739C124.709 35.3823 124.709 36.5708 125.249 36.8792C127.583 36.7654 129.92 36.7128 132.257 36.7212C135.041 36.7212 137.421 36.7663 140.274 36.8773C140.808 36.5708 140.808 35.3823 140.328 35.0739L138.429 34.931C136.47 34.7674 136.229 34.3555 136.229 30.7657V22.862C136.229 20.9138 136.53 19.7742 137.369 19.7742" fill="#B2B2B2"/>
<path d="M160.66 34.9058L159.891 35.0657C159.41 35.5264 159.526 36.5983 160.122 36.8521C161.785 36.7506 163.915 36.7017 167.434 36.7017C170.875 36.7017 173.068 36.7506 174.903 36.8521C175.499 36.6547 175.621 35.4211 175.138 35.0657L174.256 34.9039C172.716 34.6501 171.59 34.3849 170.759 33.7286C169.265 32.5496 164.04 25.5635 162.986 23.9219C162.68 23.5119 162.554 23.2073 162.554 23.0474C162.554 22.897 162.616 22.6939 162.907 22.378C163.742 21.669 164.649 20.8849 166.896 19.3974C168.493 18.3293 169.751 17.8178 170.877 17.6072L172.769 17.2461C173.194 16.8456 173.135 15.6985 172.528 15.4503C169.034 15.9166 164.103 16.1686 161.309 16.1686H159.891C159.299 16.383 159.233 17.5038 159.767 17.9645L161.256 18.1789C161.785 18.2202 162.377 18.4233 162.377 18.6866C162.377 18.995 162.091 19.5554 160.956 20.7288L158.47 23.2599C157.277 24.4352 156.031 24.6929 155.021 24.6929C154.376 24.6929 154.184 24.5387 154.184 23.9726V7.85872C154.184 4.62051 154.259 2.46171 154.376 0.3612C154.143 0.0979308 153.714 0.00390625 153.36 0.00390625C150.325 1.1228 146.713 2.36768 144.281 2.86789C143.86 3.18382 143.86 4.1109 144.281 4.40237L145.289 4.92891C146.472 5.54759 146.472 6.10986 146.472 8.17464V30.7481C146.472 34.3398 146.233 34.7516 144.088 34.9641L142.959 35.0657C142.491 35.3665 142.491 36.5512 143.019 36.8521C145.434 36.7445 147.85 36.6944 150.267 36.7017C153.001 36.7017 155.491 36.7506 157.4 36.8521C157.926 36.5512 157.926 35.3665 157.456 35.0657L156.512 34.9641C154.425 34.7516 154.184 34.3379 154.184 30.7481V27.7769C154.184 26.7934 154.485 26.5433 154.895 26.5433C155.491 26.5433 155.968 26.7501 156.392 27.2992L160.6 32.8561C161.076 33.4654 161.606 34.2853 161.606 34.5072C161.606 34.6971 161.256 34.793 160.66 34.9039" fill="#B2B2B2"/>
</g>
<defs>
<clipPath id="clip0_1054_88173">
<rect width="176.766" height="37.6098" fill="white" transform="translate(0.205078)"/>
</clipPath>
</defs>
</svg>
